<svg width="41" height="58" viewBox="0 0 41 58" fill="none" xmlns="http://www.w3.org/2000/svg">
<path d="M3 11.75C3 9.42936 3.92187 7.20376 5.56282 5.56282C7.20376 3.92187 9.42936 3 11.75 3H20.5V20.5H11.75C9.42936 20.5 7.20376 19.5781 5.56282 17.9372C3.92187 16.2962 3 14.0706 3 11.75Z" stroke="black" stroke-width="5" stroke-linecap="round" stroke-linejoin="round"/>
<path d="M20.5 3H29.25C30.3991 3 31.5369 3.22633 32.5985 3.66605C33.6601 4.10578 34.6247 4.7503 35.4372 5.56282C36.2497 6.37533 36.8942 7.33992 37.3339 8.40152C37.7737 9.46312 38 10.6009 38 11.75C38 12.8991 37.7737 14.0369 37.3339 15.0985C36.8942 16.1601 36.2497 17.1247 35.4372 17.9372C34.6247 18.7497 33.6601 19.3942 32.5985 19.8339C31.5369 20.2737 30.3991 20.5 29.25 20.5H20.5V3Z" stroke="black" stroke-width="5" stroke-linecap="round" stroke-linejoin="round"/>
<path d="M20.5 29.25C20.5 28.1009 20.7263 26.9631 21.1661 25.9015C21.6058 24.8399 22.2503 23.8753 23.0628 23.0628C23.8753 22.2503 24.8399 21.6058 25.9015 21.1661C26.9631 20.7263 28.1009 20.5 29.25 20.5C30.3991 20.5 31.5369 20.7263 32.5985 21.1661C33.6601 21.6058 34.6247 22.2503 35.4372 23.0628C36.2497 23.8753 36.8942 24.8399 37.3339 25.9015C37.7737 26.9631 38 28.1009 38 29.25C38 30.3991 37.7737 31.5369 37.3339 32.5985C36.8942 33.6601 36.2497 34.6247 35.4372 35.4372C34.6247 36.2497 33.6601 36.8942 32.5985 37.3339C31.5369 37.7737 30.3991 38 29.25 38C28.1009 38 26.9631 37.7737 25.9015 37.3339C24.8399 36.8942 23.8753 36.2497 23.0628 35.4372C22.2503 34.6247 21.6058 33.6601 21.1661 32.5985C20.7263 31.5369 20.5 30.3991 20.5 29.25Z" stroke="black" stroke-width="5" stroke-linecap="round" stroke-linejoin="round"/>
<path d="M3 46.75C3 44.4294 3.92187 42.2038 5.56282 40.5628C7.20376 38.9219 9.42936 38 11.75 38H20.5V46.75C20.5 49.0706 19.5781 51.2962 17.9372 52.9372C16.2962 54.5781 14.0706 55.5 11.75 55.5C9.42936 55.5 7.20376 54.5781 5.56282 52.9372C3.92187 51.2962 3 49.0706 3 46.75Z" stroke="black" stroke-width="5" stroke-linecap="round" stroke-linejoin="round"/>
<path d="M3 29.25C3 26.9294 3.92187 24.7038 5.56282 23.0628C7.20376 21.4219 9.42936 20.5 11.75 20.5H20.5V38H11.75C9.42936 38 7.20376 37.0781 5.56282 35.4372C3.92187 33.7962 3 31.5706 3 29.25Z" stroke="black" stroke-width="5" stroke-linecap="round" stroke-linejoin="round"/>
</svg>
