<svg width="61" height="56" viewBox="0 0 61 56" fill="none" xmlns="http://www.w3.org/2000/svg">
<path d="M41.5 18.7896C45.8761 18.7896 50.0729 20.4531 53.1673 23.4142C56.2616 26.3753 58 30.3914 58 34.579V53.0001H47V34.579C47 33.1831 46.4205 31.8444 45.3891 30.8574C44.3576 29.8704 42.9587 29.3159 41.5 29.3159C40.0413 29.3159 38.6424 29.8704 37.6109 30.8574C36.5795 31.8444 36 33.1831 36 34.579V53.0001H25V34.579C25 30.3914 26.7384 26.3753 29.8327 23.4142C32.9271 20.4531 37.1239 18.7896 41.5 18.7896Z" stroke="black" stroke-width="5" stroke-linecap="round" stroke-linejoin="round"/>
<path d="M14 21.4211H3V53.0001H14V21.4211Z" stroke="black" stroke-width="5" stroke-linecap="round" stroke-linejoin="round"/>
<path d="M8.5 13.5263C11.5376 13.5263 14 11.1699 14 8.26316C14 5.3564 11.5376 3 8.5 3C5.46243 3 3 5.3564 3 8.26316C3 11.1699 5.46243 13.5263 8.5 13.5263Z" stroke="black" stroke-width="5" stroke-linecap="round" stroke-linejoin="round"/>
</svg>
